<svg width="1280" height="720" xmlns="http://www.w3.org/2000/svg" xmlns:xlink="http://www.w3.org/1999/xlink" overflow="hidden"><defs><clipPath id="clip0"><rect x="0" y="0" width="1280" height="720"/></clipPath><linearGradient x1="528" y1="299.5" x2="0" y2="299.5" gradientUnits="userSpaceOnUse" spreadMethod="reflect" id="fill1"><stop offset="0" stop-color="#FFFFFF"/><stop offset="0.23129" stop-color="#FFFFFF"/><stop offset="0.88" stop-color="#FCECE0"/><stop offset="1" stop-color="#FCECE0"/></linearGradient><linearGradient x1="667" y1="349.5" x2="139" y2="349.5" gradientUnits="userSpaceOnUse" spreadMethod="reflect" id="fill2"><stop offset="0" stop-color="#FFFFFF"/><stop offset="0.23129" stop-color="#FFFFFF"/><stop offset="0.88" stop-color="#E3EAF6"/><stop offset="1" stop-color="#E3EAF6"/></linearGradient></defs><g clip-path="url(#clip0)"><rect x="0" y="0" width="1280" height="720" fill="#FFFFFF"/><rect x="0" y="0" width="528" height="599" fill="url(#fill1)" transform="matrix(-1 0 0 1 1195 50)"/><rect x="139" y="50" width="528" height="599" fill="url(#fill2)"/><path d="M2.87824e-07-3 1079.28-2.9999 1079.28 3.0001-2.87824e-07 3ZM1076.28-8.9999 1094.28 0.000104987 1076.28 9.0001Z" transform="matrix(1 0 0 -1 137 646)"/><path d="M3-4.93563e-07 3.0001 623.137-2.9999 623.137-3 4.93563e-07ZM9.0001 620.136 0.000104987 638.136-8.9999 620.136Z" transform="matrix(1 0 0 -1 139 648.136)"/><path d="M0 0C74.0529 118.143 145.084 233.831 271.345 323.168 397.605 409.305 686.479 407.689 797 408" stroke="#000000" stroke-width="4" stroke-miterlimit="8" stroke-dasharray="16 12" fill="none" fill-rule="evenodd" transform="matrix(-1 0 0 1 1064 160)"/><path d="M263 128C281.656 249.165 378.421 411.555 508.083 484.782 663.367 567.596 962.305 560.656 1073 560.966" stroke="#000000" stroke-width="4" stroke-miterlimit="8" stroke-dasharray="16 12" fill="none" fill-rule="evenodd"/><path d="M301.418 84.3896 305.057 93.9778 305.036 93.9232 312.661 112.361 312.634 112.3 320.759 130.237 320.735 130.186 329.235 147.624 329.205 147.564 338.142 164.439 338.112 164.383 347.424 180.696 347.393 180.643 357.08 196.455 357.047 196.403 367.047 211.653 367.011 211.599 377.386 226.349 377.345 226.293 388.032 240.418 387.994 240.369 398.994 253.994 398.953 253.945 410.203 267.007 410.156 266.955 421.656 279.392 421.609 279.343 433.359 291.218 433.309 291.17 445.309 302.482 445.257 302.434 457.507 313.184 457.454 313.14 469.829 323.265 469.769 323.217 482.331 332.717 482.277 332.677 494.964 341.615 494.897 341.57 507.772 349.882 507.712 349.845 520.712 357.595 520.639 357.553 533.701 364.616 533.631 364.579 546.756 371.017 546.689 370.986 559.876 376.861 559.789 376.824 573.101 382.011 573.026 381.984 586.276 386.546 586.184 386.517 599.496 390.392 599.42 390.372 612.733 393.684 612.63 393.661 625.88 396.224 625.791 396.209 638.978 398.146 638.876 398.134 652.064 399.384 651.971 399.377 665.033 400.002 664.813 400.004 674.813 399.379 674.599 399.404 684.786 397.654 684.596 397.696 694.846 394.884 694.685 394.935 705.06 391.123 704.917 391.182 715.417 386.369 715.302 386.427 725.864 380.739 725.766 380.796 736.453 374.233 736.362 374.293 747.112 366.855 747.038 366.909 757.788 358.721 757.725 358.772 768.6 349.772 768.549 349.815 779.424 340.19 779.374 340.236 790.249 329.924 790.215 329.957 801.152 319.082 801.113 319.122 812.051 307.622 812.022 307.653 822.959 295.653 822.936 295.679 833.873 283.242 833.847 283.272 844.722 270.397 844.704 270.419 855.579 257.169 855.551 257.203 877.114 229.703 877.087 229.737 898.462 201.237 898.44 201.268 919.44 172.143 919.425 172.164 939.988 142.851 939.976 142.869 960.038 113.619 960.031 113.629 979.531 84.8165 992.756 65.1776 996.073 67.4118 982.844 87.0585 963.34 115.876 943.268 145.14 922.692 174.472 901.674 203.622 880.275 232.155 858.685 259.689 847.787 272.967 836.89 285.868 825.928 298.334 814.964 310.363 803.992 321.899 793.018 332.81 782.101 343.162 771.176 352.832 760.244 361.879 749.425 370.119 738.593 377.613 727.811 384.234 717.142 389.979 706.513 394.85 695.986 398.719 685.56 401.58 675.17 403.364 664.952 404.003 651.733 403.37 638.448 402.111 625.165 400.16 611.818 397.579 598.416 394.244 585.02 390.344 571.686 385.753 558.292 380.534 545.027 374.624 531.834 368.153 518.699 361.052 505.633 353.262 492.694 344.908 479.946 335.928 467.326 326.385 454.894 316.214 442.591 305.417 430.54 294.056 418.742 282.133 407.195 269.644 395.901 256.531 384.862 242.857 374.134 228.679 363.72 213.874 353.686 198.571 343.966 182.706 334.622 166.339 325.654 149.406 317.127 131.913 308.977 113.92 301.328 95.4247 297.679 85.809ZM294.649 89.0982 296 75.75 305.868 84.8401ZM988.321 64.6024 1000 58 998.274 71.305Z"/><text font-family="Calibri,Calibri_MSFontService,sans-serif" font-weight="700" font-size="43" transform="translate(505.77 695)">Model complexity</text><text font-family="Calibri,Calibri_MSFontService,sans-serif" font-weight="700" font-size="43" transform="matrix(-1.83697e-16 -1 1 -1.83697e-16 116.3 443)">Total error</text><text fill="#203864" font-family="Calibri,Calibri_MSFontService,sans-serif" font-weight="700" font-size="32" transform="translate(170.668 359)">Underfitting <tspan font-size="32" x="50.0867" y="38">zone</tspan><tspan fill="#843C0C" font-size="32" x="854.813" y="0">Overfitting </tspan><tspan fill="#843C0C" font-size="32" x="895.587" y="38">zone</tspan><tspan fill="#000000" font-size="32" x="762.052" y="189">Bias</tspan><tspan fill="#000000" font-size="21" x="816.552" y="179">2</tspan><tspan fill="#000000" font-size="32" x="834.552" y="189">term</tspan><tspan fill="#000000" font-size="32" x="88.4912" y="195">Variance term</tspan></text><path d="M273 617 1072.42 617" stroke="#000000" stroke-width="4" stroke-miterlimit="8" stroke-dasharray="16 12" fill="none" fill-rule="evenodd"/><text font-family="Calibri,Calibri_MSFontService,sans-serif" font-weight="700" font-size="32" transform="translate(856.197 605)">Irreducible term</text><text font-family="Calibri,Calibri_MSFontService,sans-serif" font-weight="700" font-size="27" transform="matrix(-1.83697e-16 -1 1 -1.83697e-16 651.512 379)">Optimum model complexity</text><path d="M666 646.937 666 48" stroke="#000000" stroke-width="4" stroke-miterlimit="8" stroke-dasharray="4 4" fill="none" fill-rule="evenodd"/></g></svg>