<?xml version="1.0" encoding="UTF-8"?>
<svg xmlns="http://www.w3.org/2000/svg" xmlns:xlink="http://www.w3.org/1999/xlink" width="208.28pt" height="93.1pt" viewBox="0 0 208.28 93.1" version="1.1">
<g id="surface1">
<path style="fill-rule:nonzero;fill:rgb(69.999695%,69.999695%,100%);fill-opacity:1;stroke-width:0.3985;stroke-linecap:butt;stroke-linejoin:miter;stroke:rgb(0%,0%,0%);stroke-opacity:1;stroke-miterlimit:10;" d="M -99.132875 -21.135375 C -81.621156 -3.627563 -76.890688 20.028687 -88.562563 31.700562 C -100.234438 43.372437 -123.890688 38.641969 -141.3985 21.134156 C -158.906313 3.626344 -163.640688 -20.029906 -151.964906 -31.701781 C -140.293031 -43.373656 -116.640688 -38.643188 -99.132875 -21.135375 Z M -99.132875 -21.135375 " transform="matrix(1,0,0,-1,163.836,44.099)"/>
<path style="fill-rule:nonzero;fill:rgb(69.999695%,69.999695%,100%);fill-opacity:1;stroke-width:0.3985;stroke-linecap:butt;stroke-linejoin:miter;stroke:rgb(0%,0%,0%);stroke-opacity:1;stroke-miterlimit:10;" d="M -0.0000625 0.00134375 C -12.0235 10.091187 -28.347719 -12.651 -28.347719 -28.346313 C -28.347719 -48.803344 12.449156 -34.721313 22.675719 -17.006469 C 32.906187 0.708375 44.242125 16.302125 34.015562 34.016969 C 28.308531 43.899781 8.503844 31.259156 8.503844 19.841187 C 8.503844 12.102906 15.777281 2.645875 8.503844 0.00134375 C 5.386656 -1.135375 2.539 -2.131469 -0.0000625 0.00134375 " transform="matrix(1,0,0,-1,163.836,44.099)"/>
<path style="fill:none;stroke-width:0.3985;stroke-linecap:butt;stroke-linejoin:miter;stroke:rgb(0%,0%,0%);stroke-opacity:1;stroke-miterlimit:10;" d="M -14.171938 -14.174438 L 19.843687 19.841187 " transform="matrix(1,0,0,-1,163.836,44.099)"/>
<path style=" stroke:none;fill-rule:nonzero;fill:rgb(0%,0%,0%);fill-opacity:1;" d="M 151.15625 58.273438 C 151.15625 57.445312 150.488281 56.777344 149.664062 56.777344 C 148.835938 56.777344 148.167969 57.445312 148.167969 58.273438 C 148.167969 59.097656 148.835938 59.765625 149.664062 59.765625 C 150.488281 59.765625 151.15625 59.097656 151.15625 58.273438 Z M 151.15625 58.273438 "/>
<path style=" stroke:none;fill-rule:nonzero;fill:rgb(0%,0%,0%);fill-opacity:1;" d="M 185.171875 24.257812 C 185.171875 23.429688 184.503906 22.761719 183.679688 22.761719 C 182.851562 22.761719 182.183594 23.429688 182.183594 24.257812 C 182.183594 25.082031 182.851562 25.75 183.679688 25.75 C 184.503906 25.75 185.171875 25.082031 185.171875 24.257812 Z M 185.171875 24.257812 "/>
</g>
</svg>
